<svg width="72" height="6" viewBox="0 0 72 6" fill="none" xmlns="http://www.w3.org/2000/svg">
<path d="M2.78646 0.381788C3.40576 0.381788 3.94695 0.497845 4.41003 0.729959C4.87311 0.962074 5.23018 1.28914 5.48124 1.71117C5.73789 2.12792 5.86621 2.61061 5.86621 3.15925C5.86621 3.70261 5.73789 4.1853 5.48124 4.60732C5.23018 5.02935 4.87032 5.35642 4.40166 5.58854C3.93858 5.82065 3.40018 5.93671 2.78646 5.93671H0.585449V0.381788H2.78646ZM2.69441 4.76558C3.23559 4.76558 3.65683 4.62579 3.95811 4.3462C4.25939 4.0666 4.41003 3.67095 4.41003 3.15925C4.41003 2.64754 4.25939 2.24925 3.95811 1.96439C3.65683 1.67952 3.23559 1.53708 2.69441 1.53708H2.01653V4.76558H2.69441Z" fill="#29BFCE"/>
<path d="M8.09704 1.46587V2.58951H10.0135V3.63403H8.09704V4.85263H10.2646V5.93671H6.66596V0.381788H10.2646V1.46587H8.09704Z" fill="#29BFCE"/>
<path d="M13.3194 5.9921C12.8898 5.9921 12.5048 5.92616 12.1644 5.79427C11.8241 5.66239 11.5507 5.4672 11.3443 5.20871C11.1434 4.95022 11.0374 4.63898 11.0263 4.27498H12.5494C12.5717 4.48072 12.6471 4.63898 12.7754 4.74976C12.9037 4.85526 13.0711 4.90802 13.2775 4.90802C13.4895 4.90802 13.6569 4.86318 13.7796 4.7735C13.9024 4.67854 13.9638 4.5493 13.9638 4.38576C13.9638 4.2486 13.9135 4.13518 13.8131 4.0455C13.7183 3.95582 13.5983 3.88197 13.4533 3.82394C13.3138 3.76591 13.1129 3.69997 12.8507 3.62611C12.4713 3.51533 12.1617 3.40455 11.9218 3.29377C11.6818 3.18299 11.4754 3.01945 11.3025 2.80316C11.1295 2.58687 11.043 2.30464 11.043 1.95647C11.043 1.43949 11.2411 1.03593 11.6372 0.745786C12.0333 0.450367 12.5494 0.302658 13.1855 0.302658C13.8326 0.302658 14.3543 0.450367 14.7504 0.745786C15.1466 1.03593 15.3586 1.44213 15.3865 1.96439H13.8382C13.8271 1.78502 13.7573 1.64523 13.629 1.545C13.5007 1.43949 13.3361 1.38674 13.1352 1.38674C12.9623 1.38674 12.8228 1.43158 12.7168 1.52126C12.6108 1.60566 12.5578 1.72963 12.5578 1.89317C12.5578 2.07253 12.6471 2.21233 12.8256 2.31256C13.0041 2.41279 13.2831 2.52093 13.6625 2.63699C14.0419 2.75832 14.3487 2.87438 14.5831 2.98516C14.823 3.09594 15.0294 3.25684 15.2024 3.46785C15.3753 3.67887 15.4618 3.95055 15.4618 4.28289C15.4618 4.59941 15.3753 4.88692 15.2024 5.14541C15.035 5.4039 14.7895 5.60964 14.4659 5.76262C14.1423 5.91561 13.7601 5.9921 13.3194 5.9921Z" fill="#29BFCE"/>
<path d="M17.7736 0.381788V5.93671H16.3425V0.381788H17.7736Z" fill="#29BFCE"/>
<path d="M22.7105 2.13847C22.6045 1.95384 22.4511 1.81404 22.2503 1.71908C22.055 1.61885 21.8234 1.56874 21.5556 1.56874C21.0926 1.56874 20.7215 1.71381 20.4426 2.00395C20.1636 2.28882 20.0241 2.67128 20.0241 3.15133C20.0241 3.66304 20.1692 4.06397 20.4593 4.35411C20.755 4.63898 21.1595 4.78141 21.6728 4.78141C22.0243 4.78141 22.32 4.697 22.5599 4.52819C22.8054 4.35938 22.9839 4.11672 23.0955 3.8002H21.2795V2.80316H24.3927V4.06133C24.2867 4.39895 24.1054 4.71283 23.8487 5.00297C23.5976 5.29312 23.2768 5.52787 22.8863 5.70723C22.4957 5.88659 22.055 5.97627 21.564 5.97627C20.9838 5.97627 20.4649 5.85758 20.0074 5.62019C19.5555 5.37752 19.2012 5.04254 18.9446 4.61524C18.6935 4.18794 18.568 3.69997 18.568 3.15133C18.568 2.6027 18.6935 2.11473 18.9446 1.68743C19.2012 1.25485 19.5555 0.919871 20.0074 0.682481C20.4593 0.439816 20.9754 0.318484 21.5556 0.318484C22.2586 0.318484 22.85 0.479381 23.3298 0.801176C23.8152 1.12297 24.136 1.56874 24.2923 2.13847H22.7105Z" fill="#29BFCE"/>
<path d="M30.441 5.93671H29.01L26.6165 2.51038V5.93671H25.1854V0.381788H26.6165L29.01 3.82394V0.381788H30.441V5.93671Z" fill="#29BFCE"/>
<path d="M33.194 0.0731812C33.791 0.0731812 34.268 0.22089 34.6251 0.516309C34.9877 0.811727 35.1691 1.22848 35.1691 1.76656C35.1691 2.26244 34.9961 2.65018 34.6502 2.92977C34.3099 3.20409 33.8579 3.34388 33.2944 3.34916L33.2526 3.94263H31.9973L31.9554 2.47082H32.4575C32.8871 2.47082 33.2135 2.4207 33.4367 2.32047C33.6655 2.22024 33.7798 2.03824 33.7798 1.77447C33.7798 1.58984 33.7268 1.44477 33.6208 1.33926C33.5148 1.23375 33.367 1.181 33.1773 1.181C32.9764 1.181 32.8202 1.23639 32.7086 1.34717C32.597 1.45268 32.5412 1.59775 32.5412 1.78239H31.1938C31.1827 1.46059 31.2524 1.17045 31.4031 0.911958C31.5593 0.653467 31.788 0.450367 32.0893 0.302658C32.3962 0.149673 32.7644 0.0731812 33.194 0.0731812ZM32.6417 6.00001C32.3906 6.00001 32.1842 5.93143 32.0224 5.79427C31.8661 5.65184 31.788 5.47775 31.788 5.27202C31.788 5.061 31.8661 4.88428 32.0224 4.74185C32.1842 4.59941 32.3906 4.52819 32.6417 4.52819C32.8871 4.52819 33.088 4.59941 33.2442 4.74185C33.406 4.88428 33.4869 5.061 33.4869 5.27202C33.4869 5.47775 33.406 5.65184 33.2442 5.79427C33.088 5.93143 32.8871 6.00001 32.6417 6.00001Z" fill="#29BFCE"/>
<path d="M39.8807 5.9921C39.4511 5.9921 39.0662 5.92616 38.7258 5.79427C38.3855 5.66239 38.1121 5.4672 37.9057 5.20871C37.7048 4.95022 37.5988 4.63898 37.5877 4.27498H39.1108C39.1331 4.48072 39.2084 4.63898 39.3368 4.74976C39.4651 4.85526 39.6325 4.90802 39.8389 4.90802C40.0509 4.90802 40.2183 4.86318 40.341 4.7735C40.4638 4.67854 40.5251 4.5493 40.5251 4.38576C40.5251 4.2486 40.4749 4.13518 40.3745 4.0455C40.2797 3.95582 40.1597 3.88197 40.0146 3.82394C39.8752 3.76591 39.6743 3.69997 39.4121 3.62611C39.0327 3.51533 38.723 3.40455 38.4831 3.29377C38.2432 3.18299 38.0368 3.01945 37.8638 2.80316C37.6909 2.58687 37.6044 2.30464 37.6044 1.95647C37.6044 1.43949 37.8025 1.03593 38.1986 0.745786C38.5947 0.450367 39.1108 0.302658 39.7468 0.302658C40.394 0.302658 40.9157 0.450367 41.3118 0.745786C41.7079 1.03593 41.92 1.44213 41.9479 1.96439H40.3996C40.3885 1.78502 40.3187 1.64523 40.1904 1.545C40.0621 1.43949 39.8975 1.38674 39.6966 1.38674C39.5237 1.38674 39.3842 1.43158 39.2782 1.52126C39.1722 1.60566 39.1192 1.72963 39.1192 1.89317C39.1192 2.07253 39.2084 2.21233 39.387 2.31256C39.5655 2.41279 39.8445 2.52093 40.2239 2.63699C40.6033 2.75832 40.9101 2.87438 41.1444 2.98516C41.3844 3.09594 41.5908 3.25684 41.7637 3.46785C41.9367 3.67887 42.0232 3.95055 42.0232 4.28289C42.0232 4.59941 41.9367 4.88692 41.7637 5.14541C41.5964 5.4039 41.3509 5.60964 41.0273 5.76262C40.7037 5.91561 40.3215 5.9921 39.8807 5.9921Z" fill="#29BFCE"/>
<path d="M45.6823 5.9921C45.13 5.9921 44.6223 5.87077 44.1592 5.6281C43.7017 5.38544 43.3363 5.04781 43.0629 4.61524C42.7951 4.17739 42.6612 3.68678 42.6612 3.14342C42.6612 2.60006 42.7951 2.11209 43.0629 1.67952C43.3363 1.24694 43.7017 0.909321 44.1592 0.666656C44.6223 0.423991 45.13 0.302658 45.6823 0.302658C46.2347 0.302658 46.7396 0.423991 47.1971 0.666656C47.6602 0.909321 48.0228 1.24694 48.2851 1.67952C48.5529 2.11209 48.6868 2.60006 48.6868 3.14342C48.6868 3.68678 48.5529 4.17739 48.2851 4.61524C48.0173 5.04781 47.6546 5.38544 47.1971 5.6281C46.7396 5.87077 46.2347 5.9921 45.6823 5.9921ZM45.6823 4.75767C46.151 4.75767 46.5248 4.60996 46.8038 4.31454C47.0883 4.01913 47.2306 3.62875 47.2306 3.14342C47.2306 2.65282 47.0883 2.26244 46.8038 1.9723C46.5248 1.67688 46.151 1.52917 45.6823 1.52917C45.2081 1.52917 44.8287 1.67424 44.5442 1.96439C44.2652 2.25453 44.1257 2.64754 44.1257 3.14342C44.1257 3.63403 44.2652 4.02704 44.5442 4.32246C44.8287 4.6126 45.2081 4.75767 45.6823 4.75767Z" fill="#29BFCE"/>
<path d="M50.914 4.89219H52.7886V5.93671H49.4829V0.381788H50.914V4.89219Z" fill="#29BFCE"/>
<path d="M58.9863 0.381788L56.9025 5.93671H55.1115L53.0277 0.381788H54.5508L56.007 4.57567L57.4715 0.381788H58.9863Z" fill="#29BFCE"/>
<path d="M61.0155 1.46587V2.58951H62.932V3.63403H61.0155V4.85263H63.183V5.93671H59.5844V0.381788H63.183V1.46587H61.0155Z" fill="#29BFCE"/>
<path d="M66.3131 0.381788C66.9324 0.381788 67.4736 0.497845 67.9367 0.729959C68.3998 0.962074 68.7569 1.28914 69.0079 1.71117C69.2646 2.12792 69.3929 2.61061 69.3929 3.15925C69.3929 3.70261 69.2646 4.1853 69.0079 4.60732C68.7569 5.02935 68.397 5.35642 67.9283 5.58854C67.4652 5.82065 66.9268 5.93671 66.3131 5.93671H64.1121V0.381788H66.3131ZM66.2211 4.76558C66.7623 4.76558 67.1835 4.62579 67.4848 4.3462C67.7861 4.0666 67.9367 3.67095 67.9367 3.15925C67.9367 2.64754 67.7861 2.24925 67.4848 1.96439C67.1835 1.67952 66.7623 1.53708 66.2211 1.53708H65.5432V4.76558H66.2211Z" fill="#29BFCE"/>
<path d="M70.8621 6.00001C70.6111 6.00001 70.4046 5.93143 70.2428 5.79427C70.0866 5.65184 70.0085 5.47775 70.0085 5.27202C70.0085 5.061 70.0866 4.88428 70.2428 4.74185C70.4046 4.59941 70.6111 4.52819 70.8621 4.52819C71.1076 4.52819 71.3085 4.59941 71.4647 4.74185C71.6265 4.88428 71.7074 5.061 71.7074 5.27202C71.7074 5.47775 71.6265 5.65184 71.4647 5.79427C71.3085 5.93143 71.1076 6.00001 70.8621 6.00001Z" fill="#29BFCE"/>
</svg>
