<svg width="108" height="9" viewBox="0 0 108 9" fill="none" xmlns="http://www.w3.org/2000/svg">
<path d="M3.34228 0.468625C4.2827 0.468625 5.1045 0.64486 5.80769 0.99733C6.51089 1.3498 7.05311 1.84646 7.43436 2.48732C7.82408 3.12016 8.01894 3.85314 8.01894 4.68625C8.01894 5.51135 7.82408 6.24433 7.43436 6.88518C7.05311 7.52603 6.50665 8.0227 5.79498 8.37517C5.09179 8.72764 4.27423 8.90387 3.34228 8.90387H0V0.468625H3.34228ZM3.20249 7.1255C4.0243 7.1255 4.66395 6.91322 5.12145 6.48865C5.57894 6.06409 5.80769 5.46328 5.80769 4.68625C5.80769 3.90921 5.57894 3.30441 5.12145 2.87183C4.66395 2.43925 4.0243 2.22296 3.20249 2.22296H2.17312V7.1255H3.20249Z" fill="#29BFCE"/>
<path d="M11.4065 2.11482V3.82109H14.3167V5.40721H11.4065V7.25768H14.6979V8.90387H9.23337V0.468625H14.6979V2.11482H11.4065Z" fill="#29BFCE"/>
<path d="M19.3367 8.98798C18.6843 8.98798 18.0997 8.88785 17.5829 8.68758C17.0661 8.48732 16.651 8.19092 16.3375 7.7984C16.0325 7.40587 15.8715 6.93324 15.8546 6.38051H18.1675C18.2014 6.69292 18.3158 6.93324 18.5106 7.10147C18.7055 7.26168 18.9597 7.34179 19.2731 7.34179C19.5951 7.34179 19.8492 7.2737 20.0356 7.13752C20.222 6.99332 20.3152 6.79706 20.3152 6.54873C20.3152 6.34045 20.239 6.16822 20.0865 6.03204C19.9424 5.89586 19.7603 5.78371 19.54 5.69559C19.3282 5.60748 19.0232 5.50734 18.625 5.39519C18.0489 5.22697 17.5787 5.05874 17.2144 4.89052C16.8501 4.7223 16.5366 4.47397 16.274 4.14553C16.0113 3.81709 15.88 3.38852 15.88 2.85981C15.88 2.07477 16.1808 1.46195 16.7823 1.02136C17.3838 0.572764 18.1675 0.348465 19.1333 0.348465C20.1161 0.348465 20.9083 0.572764 21.5098 1.02136C22.1113 1.46195 22.4333 2.07877 22.4756 2.87183H20.1246C20.1076 2.59947 20.0017 2.38718 19.8069 2.23498C19.612 2.07477 19.3621 1.99466 19.0571 1.99466C18.7945 1.99466 18.5826 2.06275 18.4217 2.19893C18.2607 2.3271 18.1802 2.51535 18.1802 2.76368C18.1802 3.03605 18.3158 3.24833 18.5869 3.40053C18.858 3.55274 19.2816 3.71696 19.8577 3.89319C20.4338 4.07744 20.8998 4.25367 21.2556 4.4219C21.6199 4.59012 21.9334 4.83445 22.196 5.15487C22.4587 5.4753 22.59 5.88785 22.59 6.39252C22.59 6.87316 22.4587 7.30975 22.196 7.70227C21.9419 8.09479 21.5691 8.40721 21.0777 8.63952C20.5863 8.87183 20.006 8.98798 19.3367 8.98798Z" fill="#29BFCE"/>
<path d="M26.1005 0.468625V8.90387H23.9273V0.468625H26.1005Z" fill="#29BFCE"/>
<path d="M33.5974 3.13618C33.4364 2.85581 33.2034 2.64352 32.8984 2.49933C32.6019 2.34713 32.2503 2.27103 31.8436 2.27103C31.1404 2.27103 30.577 2.49132 30.1534 2.93191C29.7298 3.36449 29.518 3.94526 29.518 4.67423C29.518 5.45127 29.7383 6.06008 30.1788 6.50067C30.6279 6.93324 31.2421 7.14953 32.0215 7.14953C32.5553 7.14953 33.0043 7.02136 33.3686 6.76502C33.7414 6.50868 34.0125 6.14019 34.182 5.65955H31.4243V4.14553H36.1517V6.05607C35.9908 6.56876 35.7154 7.04539 35.3257 7.48598C34.9445 7.92657 34.4573 8.28304 33.8642 8.55541C33.2712 8.82777 32.6019 8.96395 31.8563 8.96395C30.9752 8.96395 30.1873 8.78371 29.4926 8.42323C28.8063 8.05474 28.2684 7.54606 27.8786 6.8972C27.4974 6.24833 27.3068 5.50734 27.3068 4.67423C27.3068 3.84112 27.4974 3.10013 27.8786 2.45127C28.2684 1.79439 28.8063 1.28571 29.4926 0.925234C30.1788 0.556742 30.9625 0.372497 31.8436 0.372497C32.9111 0.372497 33.8092 0.616823 34.5378 1.10547C35.2749 1.59413 35.762 2.27103 35.9992 3.13618H33.5974Z" fill="#29BFCE"/>
<path d="M45.3363 8.90387H43.1631L39.5286 3.70093V8.90387H37.3555V0.468625H39.5286L43.1631 5.69559V0.468625H45.3363V8.90387Z" fill="#29BFCE"/>
<path d="M49.5167 0C50.4232 0 51.1476 0.224299 51.6898 0.672897C52.2405 1.1215 52.5159 1.75434 52.5159 2.57143C52.5159 3.32443 52.2532 3.91322 51.7279 4.33778C51.2111 4.75434 50.5249 4.96662 49.6692 4.97463L49.6057 5.87583H47.6994L47.6359 3.64085H48.3984C49.0507 3.64085 49.5464 3.56475 49.8852 3.41255C50.2326 3.26035 50.4063 2.98398 50.4063 2.58344C50.4063 2.30307 50.3258 2.08278 50.1648 1.92256C50.0039 1.76235 49.7793 1.68224 49.4913 1.68224C49.1863 1.68224 48.9491 1.76636 48.7796 1.93458C48.6102 2.09479 48.5255 2.31509 48.5255 2.59546H46.4794C46.4625 2.10681 46.5684 1.66622 46.7971 1.2737C47.0343 0.881175 47.3817 0.572764 47.8392 0.348465C48.3052 0.116155 48.8643 0 49.5167 0ZM48.678 9C48.2967 9 47.9832 8.89586 47.7375 8.68758C47.5003 8.4713 47.3817 8.20694 47.3817 7.89453C47.3817 7.5741 47.5003 7.30574 47.7375 7.08945C47.9832 6.87316 48.2967 6.76502 48.678 6.76502C49.0507 6.76502 49.3557 6.87316 49.5929 7.08945C49.8386 7.30574 49.9615 7.5741 49.9615 7.89453C49.9615 8.20694 49.8386 8.4713 49.5929 8.68758C49.3557 8.89586 49.0507 9 48.678 9Z" fill="#29BFCE"/>
<path d="M59.6706 8.98798C59.0183 8.98798 58.4337 8.88785 57.9169 8.68758C57.4001 8.48732 56.9849 8.19092 56.6715 7.7984C56.3665 7.40587 56.2055 6.93324 56.1886 6.38051H58.5015C58.5354 6.69292 58.6497 6.93324 58.8446 7.10147C59.0395 7.26168 59.2936 7.34179 59.6071 7.34179C59.929 7.34179 60.1832 7.2737 60.3696 7.13752C60.556 6.99332 60.6492 6.79706 60.6492 6.54873C60.6492 6.34045 60.5729 6.16822 60.4204 6.03204C60.2764 5.89586 60.0942 5.78371 59.874 5.69559C59.6622 5.60748 59.3572 5.50734 58.959 5.39519C58.3829 5.22697 57.9126 5.05874 57.5483 4.89052C57.184 4.7223 56.8706 4.47397 56.6079 4.14553C56.3453 3.81709 56.214 3.38852 56.214 2.85981C56.214 2.07477 56.5147 1.46195 57.1163 1.02136C57.7178 0.572764 58.5015 0.348465 59.4673 0.348465C60.4501 0.348465 61.2422 0.572764 61.8438 1.02136C62.4453 1.46195 62.7672 2.07877 62.8096 2.87183H60.4585C60.4416 2.59947 60.3357 2.38718 60.1408 2.23498C59.946 2.07477 59.6961 1.99466 59.3911 1.99466C59.1284 1.99466 58.9166 2.06275 58.7556 2.19893C58.5947 2.3271 58.5142 2.51535 58.5142 2.76368C58.5142 3.03605 58.6497 3.24833 58.9208 3.40053C59.192 3.55274 59.6156 3.71696 60.1917 3.89319C60.7678 4.07744 61.2338 4.25367 61.5896 4.4219C61.9539 4.59012 62.2674 4.83445 62.53 5.15487C62.7926 5.4753 62.924 5.88785 62.924 6.39252C62.924 6.87316 62.7926 7.30975 62.53 7.70227C62.2758 8.09479 61.9031 8.40721 61.4117 8.63952C60.9203 8.87183 60.3399 8.98798 59.6706 8.98798Z" fill="#29BFCE"/>
<path d="M68.4805 8.98798C67.6417 8.98798 66.8707 8.80374 66.1676 8.43525C65.4728 8.06676 64.9179 7.55407 64.5028 6.8972C64.0961 6.23231 63.8928 5.48732 63.8928 4.66222C63.8928 3.83712 64.0961 3.09613 64.5028 2.43925C64.9179 1.78238 65.4728 1.26969 66.1676 0.901202C66.8707 0.532711 67.6417 0.348465 68.4805 0.348465C69.3192 0.348465 70.0859 0.532711 70.7807 0.901202C71.4839 1.26969 72.0346 1.78238 72.4327 2.43925C72.8394 3.09613 73.0427 3.83712 73.0427 4.66222C73.0427 5.48732 72.8394 6.23231 72.4327 6.8972C72.0261 7.55407 71.4754 8.06676 70.7807 8.43525C70.0859 8.80374 69.3192 8.98798 68.4805 8.98798ZM68.4805 7.11348C69.1921 7.11348 69.7598 6.88919 70.1834 6.44059C70.6155 5.99199 70.8315 5.3992 70.8315 4.66222C70.8315 3.91722 70.6155 3.32443 70.1834 2.88384C69.7598 2.43525 69.1921 2.21095 68.4805 2.21095C67.7603 2.21095 67.1842 2.43124 66.7521 2.87183C66.3285 3.31242 66.1167 3.90921 66.1167 4.66222C66.1167 5.40721 66.3285 6.00401 66.7521 6.4526C67.1842 6.89319 67.7603 7.11348 68.4805 7.11348Z" fill="#29BFCE"/>
<path d="M76.4248 7.31776H79.2715V8.90387H74.2517V0.468625H76.4248V7.31776Z" fill="#29BFCE"/>
<path d="M88.6828 0.468625L85.5184 8.90387H82.7988L79.6345 0.468625H81.9474L84.1586 6.83712L86.3826 0.468625H88.6828Z" fill="#29BFCE"/>
<path d="M91.7642 2.11482V3.82109H94.6744V5.40721H91.7642V7.25768H95.0556V8.90387H89.591V0.468625H95.0556V2.11482H91.7642Z" fill="#29BFCE"/>
<path d="M99.8087 0.468625C100.749 0.468625 101.571 0.64486 102.274 0.99733C102.977 1.3498 103.52 1.84646 103.901 2.48732C104.291 3.12016 104.485 3.85314 104.485 4.68625C104.485 5.51135 104.291 6.24433 103.901 6.88518C103.52 7.52603 102.973 8.0227 102.261 8.37517C101.558 8.72764 100.741 8.90387 99.8087 8.90387H96.4664V0.468625H99.8087ZM99.6689 7.1255C100.491 7.1255 101.13 6.91322 101.588 6.48865C102.045 6.06409 102.274 5.46328 102.274 4.68625C102.274 3.90921 102.045 3.30441 101.588 2.87183C101.13 2.43925 100.491 2.22296 99.6689 2.22296H98.6395V7.1255H99.6689Z" fill="#29BFCE"/>
<path d="M106.716 9C106.335 9 106.022 8.89586 105.776 8.68758C105.539 8.4713 105.42 8.20694 105.42 7.89453C105.42 7.5741 105.539 7.30574 105.776 7.08945C106.022 6.87316 106.335 6.76502 106.716 6.76502C107.089 6.76502 107.394 6.87316 107.631 7.08945C107.877 7.30574 108 7.5741 108 7.89453C108 8.20694 107.877 8.4713 107.631 8.68758C107.394 8.89586 107.089 9 106.716 9Z" fill="#29BFCE"/>
</svg>
