<svg width="145" height="14" viewBox="0 0 145 14" fill="none" xmlns="http://www.w3.org/2000/svg">
<path d="M4.92832 1.06602C6.18632 1.06602 7.28566 1.31535 8.22632 1.81402C9.16699 2.31268 9.89232 3.01535 10.4023 3.92202C10.9237 4.81735 11.1843 5.85435 11.1843 7.03302C11.1843 8.20035 10.9237 9.23735 10.4023 10.144C9.89232 11.0507 9.16132 11.7533 8.20932 12.252C7.26865 12.7507 6.17499 13 4.92832 13H0.457321V1.06602H4.92832ZM4.74132 10.484C5.84065 10.484 6.69632 10.1837 7.30832 9.58302C7.92032 8.98235 8.22632 8.13235 8.22632 7.03302C8.22632 5.93368 7.92032 5.07802 7.30832 4.46602C6.69632 3.85402 5.84065 3.54802 4.74132 3.54802H3.36432V10.484H4.74132Z" fill="#29BFCE"/>
<path d="M15.7159 3.39502V5.80902H19.6089V8.05302H15.7159V10.671H20.1189V13H12.8089V1.06602H20.1189V3.39502H15.7159Z" fill="#29BFCE"/>
<path d="M26.3242 13.119C25.4515 13.119 24.6695 12.9774 23.9781 12.694C23.2868 12.4107 22.7315 11.9913 22.3121 11.436C21.9041 10.8807 21.6888 10.212 21.6661 9.43002H24.7601C24.8055 9.87202 24.9585 10.212 25.2191 10.45C25.4798 10.6767 25.8198 10.79 26.2391 10.79C26.6698 10.79 27.0098 10.6937 27.2591 10.501C27.5085 10.297 27.6332 10.0193 27.6332 9.66802C27.6332 9.37335 27.5312 9.12968 27.3272 8.93702C27.1345 8.74435 26.8908 8.58568 26.5961 8.46102C26.3128 8.33635 25.9048 8.19468 25.3722 8.03602C24.6015 7.79802 23.9725 7.56002 23.4851 7.32202C22.9978 7.08402 22.5785 6.73268 22.2271 6.26802C21.8758 5.80335 21.7001 5.19702 21.7001 4.44902C21.7001 3.33835 22.1025 2.47135 22.9071 1.84802C23.7118 1.21335 24.7601 0.896016 26.0521 0.896016C27.3668 0.896016 28.4265 1.21335 29.2311 1.84802C30.0358 2.47135 30.4665 3.34402 30.5231 4.46602H27.3781C27.3555 4.08068 27.2138 3.78035 26.9531 3.56502C26.6925 3.33835 26.3582 3.22502 25.9501 3.22502C25.5988 3.22502 25.3155 3.32135 25.1001 3.51402C24.8848 3.69535 24.7771 3.96168 24.7771 4.31302C24.7771 4.69835 24.9585 4.99868 25.3211 5.21402C25.6838 5.42935 26.2505 5.66168 27.0212 5.91102C27.7918 6.17168 28.4151 6.42102 28.8911 6.65902C29.3785 6.89702 29.7978 7.24268 30.1491 7.69602C30.5005 8.14935 30.6761 8.73302 30.6761 9.44702C30.6761 10.127 30.5005 10.7447 30.1491 11.3C29.8091 11.8553 29.3105 12.2973 28.6531 12.626C27.9958 12.9547 27.2195 13.119 26.3242 13.119Z" fill="#29BFCE"/>
<path d="M35.3721 1.06602V13H32.4651V1.06602H35.3721Z" fill="#29BFCE"/>
<path d="M45.4008 4.84002C45.1855 4.44335 44.8738 4.14302 44.4658 3.93902C44.0691 3.72368 43.5988 3.61602 43.0548 3.61602C42.1141 3.61602 41.3605 3.92768 40.7938 4.55102C40.2271 5.16302 39.9438 5.98468 39.9438 7.01602C39.9438 8.11535 40.2385 8.97668 40.8278 9.60002C41.4285 10.212 42.2501 10.518 43.2928 10.518C44.0068 10.518 44.6075 10.3367 45.0948 9.97402C45.5935 9.61135 45.9561 9.09002 46.1828 8.41002H42.4938V6.26802H48.8178V8.97102C48.6025 9.69635 48.2341 10.3707 47.7128 10.994C47.2028 11.6173 46.5511 12.1217 45.7578 12.507C44.9645 12.8923 44.0691 13.085 43.0718 13.085C41.8931 13.085 40.8391 12.83 39.9098 12.32C38.9918 11.7987 38.2721 11.079 37.7508 10.161C37.2408 9.24302 36.9858 8.19468 36.9858 7.01602C36.9858 5.83735 37.2408 4.78902 37.7508 3.87102C38.2721 2.94168 38.9918 2.22202 39.9098 1.71202C40.8278 1.19068 41.8761 0.930015 43.0548 0.930015C44.4828 0.930015 45.6841 1.27568 46.6588 1.96702C47.6448 2.65835 48.2965 3.61602 48.6138 4.84002H45.4008Z" fill="#29BFCE"/>
<path d="M61.104 13H58.197L53.335 5.63902V13H50.428V1.06602H53.335L58.197 8.46102V1.06602H61.104V13Z" fill="#29BFCE"/>
<path d="M66.6962 0.403015C67.9089 0.403015 68.8779 0.720348 69.6032 1.35502C70.3399 1.98968 70.7082 2.88502 70.7082 4.04102C70.7082 5.10635 70.3569 5.93935 69.6542 6.54002C68.9629 7.12935 68.0449 7.42968 66.9002 7.44102L66.8152 8.71602H64.2652L64.1802 5.55402H65.2002C66.0729 5.55402 66.7359 5.44635 67.1892 5.23102C67.6539 5.01568 67.8862 4.62468 67.8862 4.05802C67.8862 3.66135 67.7786 3.34968 67.5632 3.12302C67.3479 2.89635 67.0476 2.78302 66.6622 2.78302C66.2542 2.78302 65.9369 2.90202 65.7102 3.14002C65.4836 3.36668 65.3702 3.67835 65.3702 4.07502H62.6332C62.6106 3.38368 62.7522 2.76035 63.0582 2.20502C63.3756 1.64968 63.8402 1.21335 64.4522 0.896016C65.0756 0.567349 65.8236 0.403015 66.6962 0.403015ZM65.5742 13.136C65.0642 13.136 64.6449 12.9887 64.3162 12.694C63.9989 12.388 63.8402 12.014 63.8402 11.572C63.8402 11.1187 63.9989 10.739 64.3162 10.433C64.6449 10.127 65.0642 9.97402 65.5742 9.97402C66.0729 9.97402 66.4809 10.127 66.7982 10.433C67.1269 10.739 67.2912 11.1187 67.2912 11.572C67.2912 12.014 67.1269 12.388 66.7982 12.694C66.4809 12.9887 66.0729 13.136 65.5742 13.136Z" fill="#29BFCE"/>
<path d="M80.2792 13.119C79.4066 13.119 78.6246 12.9774 77.9332 12.694C77.2419 12.4107 76.6866 11.9913 76.2672 11.436C75.8592 10.8807 75.6439 10.212 75.6212 9.43002H78.7152C78.7606 9.87202 78.9136 10.212 79.1742 10.45C79.4349 10.6767 79.7749 10.79 80.1942 10.79C80.6249 10.79 80.9649 10.6937 81.2142 10.501C81.4636 10.297 81.5882 10.0193 81.5882 9.66802C81.5882 9.37335 81.4862 9.12968 81.2822 8.93702C81.0896 8.74435 80.8459 8.58568 80.5512 8.46102C80.2679 8.33635 79.8599 8.19468 79.3272 8.03602C78.5566 7.79802 77.9276 7.56002 77.4402 7.32202C76.9529 7.08402 76.5336 6.73268 76.1822 6.26802C75.8309 5.80335 75.6552 5.19702 75.6552 4.44902C75.6552 3.33835 76.0576 2.47135 76.8622 1.84802C77.6669 1.21335 78.7152 0.896016 80.0072 0.896016C81.3219 0.896016 82.3816 1.21335 83.1862 1.84802C83.9909 2.47135 84.4216 3.34402 84.4782 4.46602H81.3332C81.3106 4.08068 81.1689 3.78035 80.9082 3.56502C80.6476 3.33835 80.3132 3.22502 79.9052 3.22502C79.5539 3.22502 79.2706 3.32135 79.0552 3.51402C78.8399 3.69535 78.7322 3.96168 78.7322 4.31302C78.7322 4.69835 78.9136 4.99868 79.2762 5.21402C79.6389 5.42935 80.2056 5.66168 80.9762 5.91102C81.7469 6.17168 82.3702 6.42102 82.8462 6.65902C83.3336 6.89702 83.7529 7.24268 84.1042 7.69602C84.4556 8.14935 84.6312 8.73302 84.6312 9.44702C84.6312 10.127 84.4556 10.7447 84.1042 11.3C83.7642 11.8553 83.2656 12.2973 82.6082 12.626C81.9509 12.9547 81.1746 13.119 80.2792 13.119Z" fill="#29BFCE"/>
<path d="M92.0642 13.119C90.9422 13.119 89.9109 12.8583 88.9702 12.337C88.0409 11.8157 87.2985 11.0903 86.7432 10.161C86.1992 9.22035 85.9272 8.16635 85.9272 6.99902C85.9272 5.83168 86.1992 4.78335 86.7432 3.85402C87.2985 2.92468 88.0409 2.19935 88.9702 1.67802C89.9109 1.15668 90.9422 0.896016 92.0642 0.896016C93.1862 0.896016 94.2119 1.15668 95.1412 1.67802C96.0819 2.19935 96.8185 2.92468 97.3512 3.85402C97.8952 4.78335 98.1672 5.83168 98.1672 6.99902C98.1672 8.16635 97.8952 9.22035 97.3512 10.161C96.8072 11.0903 96.0705 11.8157 95.1412 12.337C94.2119 12.8583 93.1862 13.119 92.0642 13.119ZM92.0642 10.467C93.0162 10.467 93.7755 10.1497 94.3422 9.51502C94.9202 8.88035 95.2092 8.04168 95.2092 6.99902C95.2092 5.94502 94.9202 5.10635 94.3422 4.48302C93.7755 3.84835 93.0162 3.53102 92.0642 3.53102C91.1009 3.53102 90.3302 3.84268 89.7522 4.46602C89.1855 5.08935 88.9022 5.93368 88.9022 6.99902C88.9022 8.05302 89.1855 8.89735 89.7522 9.53202C90.3302 10.1553 91.1009 10.467 92.0642 10.467Z" fill="#29BFCE"/>
<path d="M102.691 10.756H106.499V13H99.7845V1.06602H102.691V10.756Z" fill="#29BFCE"/>
<path d="M119.089 1.06602L114.856 13H111.218L106.985 1.06602H110.079L113.037 10.076L116.012 1.06602H119.089Z" fill="#29BFCE"/>
<path d="M123.211 3.39502V5.80902H127.104V8.05302H123.211V10.671H127.614V13H120.304V1.06602H127.614V3.39502H123.211Z" fill="#29BFCE"/>
<path d="M133.972 1.06602C135.23 1.06602 136.33 1.31535 137.27 1.81402C138.211 2.31268 138.936 3.01535 139.446 3.92202C139.968 4.81735 140.228 5.85435 140.228 7.03302C140.228 8.20035 139.968 9.23735 139.446 10.144C138.936 11.0507 138.205 11.7533 137.253 12.252C136.313 12.7507 135.219 13 133.972 13H129.501V1.06602H133.972ZM133.785 10.484C134.885 10.484 135.74 10.1837 136.352 9.58302C136.964 8.98235 137.27 8.13235 137.27 7.03302C137.27 5.93368 136.964 5.07802 136.352 4.46602C135.74 3.85402 134.885 3.54802 133.785 3.54802H132.408V10.484H133.785Z" fill="#29BFCE"/>
<path d="M143.213 13.136C142.703 13.136 142.283 12.9887 141.955 12.694C141.637 12.388 141.479 12.014 141.479 11.572C141.479 11.1187 141.637 10.739 141.955 10.433C142.283 10.127 142.703 9.97402 143.213 9.97402C143.712 9.97402 144.119 10.127 144.437 10.433C144.765 10.739 144.93 11.1187 144.93 11.572C144.93 12.014 144.765 12.388 144.437 12.694C144.119 12.9887 143.712 13.136 143.213 13.136Z" fill="#29BFCE"/>
</svg>
