<svg width="27" height="23" viewBox="0 0 27 23" fill="none" xmlns="http://www.w3.org/2000/svg">
<path d="M3 10.5C2.44772 10.5 2 10.9477 2 11.5C2 12.0523 2.44772 12.5 3 12.5V10.5ZM25.5 12.5C26.0523 12.5 26.5 12.0523 26.5 11.5C26.5 10.9477 26.0523 10.5 25.5 10.5V12.5ZM9.72275 22.6292C10.0703 23.0585 10.6999 23.1247 11.1292 22.7772C11.5585 22.4297 11.6247 21.8001 11.2772 21.3708L9.72275 22.6292ZM2 11.5L1.22276 10.8708L0.713404 11.5L1.22276 12.1292L2 11.5ZM11.2772 1.6292C11.6247 1.19994 11.5585 0.570252 11.1292 0.222755C10.6999 -0.124741 10.0703 -0.0584587 9.72275 0.370802L11.2772 1.6292ZM3 12.5H25.5V10.5H3V12.5ZM11.2772 21.3708L2.77724 10.8708L1.22276 12.1292L9.72275 22.6292L11.2772 21.3708ZM2.77724 12.1292L11.2772 1.6292L9.72275 0.370802L1.22276 10.8708L2.77724 12.1292Z" fill="white"/>
</svg>
